<svg xmlns="http://www.w3.org/2000/svg" version="1.1" xmlns:xlink="http://www.w3.org/1999/xlink" xmlns:svgjs="http://svgjs.dev/svgjs" width="1500" height="1500" viewBox="0 0 1500 1500"><rect width="1500" height="1500" fill="#000000"></rect><g transform="matrix(0.6666666666666666,0,0,0.6666666666666666,250.00000781249992,187.66666666666674)"><svg viewBox="0 0 320 360" data-background-color="#ffffff" preserveAspectRatio="xMidYMid meet" height="1687" width="1500" xmlns="http://www.w3.org/2000/svg" xmlns:xlink="http://www.w3.org/1999/xlink"><g id="tight-bounds" transform="matrix(1,0,0,1,0.0000025000000505315256,0)"><svg viewBox="0 0 320 360" height="360" width="320"><g><svg></svg></g><g><svg viewBox="0 0 320 360" height="360" width="320"><g><path transform="translate(-19.44751,3.1739) scale(3.53591,3.53591)" d="M67.6 10.7c0.2 0 1.8 0.8 2.7 1.1-0.3 0.1-1-0.2-1.8-0.5 0.2 0 0.6 0.1 1 0.3-0.2-0.2-1.7-0.7-1.9-0.9M52.7 7.6c0.3-0.1 3.8 0.4 5.4 0.5 0.1-0.1-0.2-0.1-0.6-0.2 0.5-0.1 1.5 0.2 2.2 0.3-2.1 0.1-4.4-0.5-6.4-0.3-0.7 0-0.2-0.2-0.6-0.3M49.8 7.6c1.8 0 3.2 0 0.6 0.2-0.3-0.1-0.7-0.1-0.6-0.2M78.1 15.9c0.2 0 1 0.9 1.4 1.2-0.1 0.1-0.9-0.7-1.3-1 0.1 0.1 0 0-0.1-0.2M76.1 14.6c-0.8-0.7-1.1-0.7-1.2-1.1 0.7 0.4 1.2 0.8 1.2 1.1M63.2 8.3c0.1-0.1 0.3 0.1 0.8 0.2-0.6-0.1-0.5 0-0.3 0.2-0.7-0.1-0.9-0.2-0.7-0.4 0.4 0.2 0.5 0.1 0.2 0M34.8 9.5c0-0.1 0.4-0.3 0.7-0.4-0.3 0.2-0.2 0.3 0.3 0.1 0 0.1-0.6 0.3-1 0.5 0.2-0.1 0.4-0.4 0-0.2M65.2 7.3c-0.3 0.1-1.4-0.5-2.5-0.7-0.6-0.2 2.4 0.5 2.5 0.7M6.2 56.7c0.6 2.5 0.2 2.4 0 0M6.3 41.7c0.1-0.4 0.2-1.5 0.3-1.4-0.3 2.4-0.8 3.5-0.9 5.3 0.3-1.6-0.1 0.9-0.2 1.5 0.1 0.8 0.1-0.5 0.3-0.3 0.2 0.3-0.4 4.5-0.2 2.2-0.2 2.1 0 4.4 0.4 5-0.5 3.2 2 10.4 2.5 11.9 0.1 0.1 0-0.5 0.2-0.1 0.2 1.3 1.1 2.2 1.4 3.6 0.3 0.4 1.5 2.6 1.7 3.1 0.4 0.8 0.6 0.7 1 1.5 1.2 2.3 3.1 4.5 4.9 6.6 5.8 6.8 14.7 12.4 24.6 14.4 9.9 2.1 20.3 0.6 28.4-3.3 0.5-0.3 0.4-0.4 1-0.6 2.8-0.9 6.2-3.8 8.1-4.9 0.9-1 3.3-2.7 3.6-3.7 1.7-1.4 3.4-3.7 4.3-5.2 0.5-0.8 0.9-0.8 1.1-1.3-0.1 0 1.6-2.1 2.1-3.3-0.2 0-0.5 0.6-0.5 0 3.6-6.9 5.6-16.2 4.5-22.6 0.2 7.9-1.8 16.7-5.6 22.3-1.7 3.6-5.2 7.5-8.4 10.3-0.5 0.5-1 1.1-1.6 1.5-1.9 1.6-4 2.9-6.2 4.1-5.2 2.9-11 5.4-17.8 5.5 11.7-1 22.2-6.9 28-14.1-4.4 4.3-6.3 6-11.2 8.5-0.4 0.7-3.7 2.1-5.9 2.7 1.3-0.6 4-1.6 4.9-2.4-7.3 3.5-15.4 5.5-23 4.4 2.9 0 7 0.1 10.9-0.6 0.6-0.2 0.9-0.4 1.6-0.5 7.6-1.7 14.9-5.4 20.1-10.6-3 2.7-7.5 5.9-10.4 6.9 2.7-1.5 7.6-4.4 9.2-6.6-3.2 3.2-9.2 6.4-13 7.8-0.6 0.1 0.4-0.4-0.6 0-1.2 0.3-0.7 0.3-1 0.5-4.6 1.3-9.9 2.4-14.3 2-0.8-0.1-1.1-0.3-1.8-0.3-0.8-0.1-1.5-0.1-2.4-0.1-3.5-0.4-7.3-1.8-10.1-3-1.5-0.7-3-1.2-4.5-2.1-1.2-0.7-2.2-1.5-3.2-2.3-3.8-2.8-7-5.6-10-9.6-5.4-7.5-8.2-16.9-7.8-26.2 0.4-9.3 4.1-18.4 10-25.1-0.3 0.3 0.4-0.7 1-1.3 0 0.2-0.1 0.5 0.6-0.2 0.6-0.7-0.2-0.2 0.1-0.6 6.2-6.8 17-12.3 28.1-12.5 0.4-0.3 1.1-0.7 1.9-0.5 0 0.1-0.5 0.1-0.5 0.1 1.1-0.1 2.1-0.1 2.6 0.1 0.1-0.1-0.4-0.2 0-0.2 0.7 0.2 0.9 0 1.3 0.2-0.3 0-0.6 0-0.8 0.1 2.5 0 4.1 0.6 6.6 0.8-1.3-0.3-1.6-0.3-2.6-0.6 1.1 0.2 1.6 0.4 2.1 0.3-0.2 0-0.1-0.3 0.1-0.2 2 0.5 2.2 0.7 4.3 1.4 0.2-0.2-0.9-0.3-1.2-0.6 2 0.7 3.8 1.2 5 2-0.4-0.3-1.6-0.7-2.5-1.1-0.1 0.1 0.3 0.2 0.4 0.4-1-0.5-2.4-1-3.8-1.2 1.2 0.3 2 0.7 2.5 0.9-1.1-0.2-2.5-0.9-4.1-1.2 2.6 0.8 7.5 2.6 10.5 4.2-1.1-0.7-2.4-1.2-3.1-1.6 0.6 0.1 1.3 0.5 1.3 0.3 0.7 0.3 1.6 1 2.1 1.1-0.9-0.6-2.7-1.5-3.3-1.8 7.5 3.4 14.2 9.1 18.5 16.4 0.4 0.7 1 2.3 1.5 2.5-0.1-0.5-0.5-0.8-0.9-1.6 0.2 0 0.2-0.3 0-0.6-0.4-0.5 0 0.4-0.4-0.1-1.8-3.3-4-6.2-7.4-9.4 1.9 1.8 0.5 0.5 0.1-0.1 2.6 2.3 5.6 6.2 6.9 8.2-0.2-0.3-0.3-0.5-0.2-0.5 2.4 4.1 3.9 7.8 5.4 13.1 0.1 0.1 0-0.4 0.2-0.1 1 4.2 1.3 7.7 1.2 10.9 0.8-5.4-1-13.8-4.2-20.4-0.4-0.8-0.4-0.2-0.8-1.1 0-0.3-0.3-0.9-0.5-1.3-4-6.6-8.9-11.3-14.7-15 0.4 0.2 1.2 0.8 1.2 0.7-10.8-7.1-23.3-8.1-33.6-5.9-0.7 0.3-1 0.6-1.8 1 1.5-0.5 2.4-0.6 3.8-0.9 0.3-0.3-1.3 0.1-0.6-0.2 0.1 0.1 1.4-0.2 1.7-0.1 0 0.1-0.4 0.2-0.5 0.3 3.3-0.7 6.7-0.8 9.6-0.6-1.7 0.1-4.8-0.2-5.8 0.3 1-0.1 2.4-0.2 3.3-0.1-1.2 0-3.4 0.1-4.4 0.2-0.1-0.1 1.6-0.3 0.5-0.3-0.5 0.1-1.3 0.1-1.6 0.4-8.6 0.8-17 5.3-22.9 10.6-1.2 1-2.6 2.1-3.5 3.2-2.2 2.5-3.6 5-5.2 7.2 1-2.1 3.2-5.3 5.8-8 2.6-2.7 5.4-5 6.9-6.2 0 0.4 2.4-1.5 3.3-2.1-0.6 0.5 0.4-0.2 0.6-0.1 3.2-1.9 5.8-2.6 8.7-3.7-0.7 0.2-1.3 0.4-1.4 0.3 0.7-0.2 1.1-0.4 1-0.5-2.8 0.8-7.2 2.7-10.7 4.8 6.3-4.3 14.3-6.9 22.2-7 7.9-0.2 15.6 1.8 21.7 5 4.1 1.8 8 5.1 11.1 8.3 0.9 0.8 0.2-0.2 1.5 1.2-0.4-0.2-0.7-0.4-0.2 0.2 0.8 0.9-0.2-0.7 1.1 0.9-0.1 0-0.5-0.5-0.5-0.3 3.5 3.1 6.2 8.7 7.8 12.4-0.4-1.5-1.4-3.6-2.2-5.1 2.4 4.4 3.2 7 4.2 10.9 0.4 0.3-0.2-1.4 0.2-0.6 0.1 0.6 0.2 2.5 0.6 2.8-0.3-1.9-0.8-4.2-1.2-4.6 0.3 0.2-0.5-2.3-1-2.9-0.2-1.6-1.6-4.4-2.8-6.5-4.3-8.4-12-15.3-20.6-19.1 0-0.2-0.5-0.4-0.7-0.6-8.5-3.6-18.7-4.6-28.5-2.3-9.9 2.4-19.2 8.1-25.8 16.3 0.3-1 2.8-2.9 2.9-3.7-2.9 3.1-6 7.2-8.1 11.6-2.2 4.4-3.4 8.9-3.9 12.2" fill="#ffffff" fill-rule="nonzero" stroke="none" stroke-width="1" stroke-linecap="butt" stroke-linejoin="miter" stroke-miterlimit="10" stroke-dasharray="" stroke-dashoffset="0" font-family="none" font-weight="none" font-size="none" text-anchor="none" style="mix-blend-mode: normal" data-fill-palette-color="tertiary"></path></g><g transform="matrix(1,0,0,1,48,127.40631158406481)"><svg viewBox="0 0 224 105.18737683187038" height="105.18737683187038" width="224"><g><svg viewBox="0 0 224 105.18737683187038" height="105.18737683187038" width="224"><g transform="matrix(1,0,0,1,0,54.594534158001366)"><svg viewBox="0 0 224 50.59284267386901" height="50.59284267386901" width="224"><g id="textblocktransform"><svg viewBox="0 0 224 50.59284267386901" height="50.59284267386901" width="224" id="textblock"><g><svg viewBox="0 0 224 50.59284267386901" height="50.59284267386901" width="224"><g transform="matrix(1,0,0,1,0,0)"><svg width="224" viewBox="1.5 -32.75 148.09 33.45" height="50.59284267386901" data-palette-color="#9d6bff"><g class="wordmark-text-0" data-fill-palette-color="primary" id="text-0"><path d="M14.9-27.25L14.9-27.25 14.7-27.25Q13.95-25.15 12.93-22.25 11.9-19.35 10.83-16.28 9.75-13.2 8.8-10.55L8.8-10.55 8.55-9.8Q8.25-8.9 7.8-7.55 7.35-6.2 6.85-4.73 6.35-3.25 5.9-1.98 5.45-0.7 5.2 0.1L5.2 0.1Q4.85 0.25 4.48 0.33 4.1 0.4 3.55 0.4L3.55 0.4Q2.75 0.4 2.13-0.03 1.5-0.45 1.5-1.4L1.5-1.4Q1.5-1.85 1.65-2.33 1.8-2.8 2-3.35L2-3.35Q2.6-5.05 3.48-7.5 4.35-9.95 5.4-12.85 6.45-15.75 7.6-18.8 8.75-21.85 9.85-24.75 10.95-27.65 11.9-30.05L11.9-30.05Q12.3-30.25 13.1-30.45 13.9-30.65 14.75-30.65L14.75-30.65Q15.75-30.65 16.68-30.35 17.6-30.05 17.85-29.35L17.85-29.35Q19.05-26.45 20.43-22.78 21.8-19.1 23.2-15.13 24.6-11.15 25.88-7.4 27.15-3.65 28.15-0.6L28.15-0.6Q27.8-0.15 27.23 0.13 26.65 0.4 25.95 0.4L25.95 0.4Q25 0.4 24.5-0.03 24-0.45 23.65-1.45L23.65-1.45 20.9-9.6 20.5-11Q19.5-14.05 18.43-17.15 17.35-20.25 16.43-22.9 15.5-25.55 14.9-27.25ZM22.65-8.1L6.6-8.1 7.9-11.45 21.85-11.45 22.65-8.1ZM54.8-11.55L54.8-11.55Q54.8-7.85 53.4-5.1 52-2.35 49.45-0.85 46.9 0.65 43.45 0.65L43.45 0.65Q40 0.65 37.42-0.85 34.85-2.35 33.45-5.1 32.05-7.85 32.05-11.55L32.05-11.55Q32.05-15.3 33.47-18.03 34.9-20.75 37.47-22.25 40.05-23.75 43.45-23.75L43.45-23.75Q46.85-23.75 49.4-22.25 51.95-20.75 53.37-18.03 54.8-15.3 54.8-11.55ZM43.45-20.45L43.45-20.45Q40.1-20.45 38.12-18.07 36.15-15.7 36.15-11.55L36.15-11.55Q36.15-7.35 38.07-5 40-2.65 43.45-2.65L43.45-2.65Q46.85-2.65 48.77-5.03 50.7-7.4 50.7-11.55L50.7-11.55Q50.7-15.7 48.77-18.07 46.85-20.45 43.45-20.45ZM76.95-19.15L67.15-10.55 64.65-12.5 76.05-23.55Q77.25-23.5 77.92-22.98 78.59-22.45 78.59-21.6L78.59-21.6Q78.59-20.9 78.17-20.35 77.75-19.8 76.95-19.15L76.95-19.15ZM75.2-1.15L64.55-11.85 67.34-13.5 80.05-2.1Q79.95-1 79.37-0.35 78.8 0.3 77.84 0.3L77.84 0.3Q77.09 0.3 76.47-0.1 75.84-0.5 75.2-1.15L75.2-1.15ZM61.1-1.55L61.1-13.4 65.09-12.8 65.09-0.1Q64.84 0 64.34 0.13 63.85 0.25 63.25 0.25L63.25 0.25Q62.2 0.25 61.65-0.18 61.1-0.6 61.1-1.55L61.1-1.55ZM65.09-30.95L65.09-10.85 61.1-11.45 61.1-32.4Q61.35-32.5 61.87-32.63 62.4-32.75 63-32.75L63-32.75Q64.05-32.75 64.57-32.33 65.09-31.9 65.09-30.95L65.09-30.95ZM85.34-8.45L85.34-8.45 85.34-13 89.34-13 89.34-8.65Q89.34-5.45 91.04-4.05 92.74-2.65 95.74-2.65L95.74-2.65Q97.74-2.65 99.14-3.08 100.54-3.5 101.34-3.95L101.34-3.95 101.34-13 105.34-13 105.34-4.1Q105.34-3.05 105.07-2.43 104.79-1.8 103.74-1.2L103.74-1.2Q102.64-0.55 100.59 0.05 98.54 0.65 95.69 0.65L95.69 0.65Q92.39 0.65 90.07-0.33 87.74-1.3 86.54-3.33 85.34-5.35 85.34-8.45ZM105.34-21.5L105.34-10.4 101.34-10.4 101.34-23Q101.59-23.1 102.12-23.23 102.64-23.35 103.19-23.35L103.19-23.35Q104.29-23.35 104.82-22.93 105.34-22.5 105.34-21.5L105.34-21.5ZM89.34-21.5L89.34-10.4 85.34-10.4 85.34-23Q85.59-23.1 86.12-23.23 86.64-23.35 87.24-23.35L87.24-23.35Q88.29-23.35 88.82-22.93 89.34-22.5 89.34-21.5L89.34-21.5ZM116.84-18.8L116.84-18.8 116.84-10.9 112.84-10.9 112.84-18.5Q112.84-19.65 113.27-20.33 113.69-21 114.69-21.65L114.69-21.65Q115.99-22.5 118.24-23.13 120.49-23.75 123.24-23.75L123.24-23.75Q127.24-23.75 127.24-21.75L127.24-21.75Q127.24-21.25 127.09-20.83 126.94-20.4 126.69-20.1L126.69-20.1Q126.19-20.2 125.39-20.3 124.59-20.4 123.79-20.4L123.79-20.4Q121.49-20.4 119.74-19.93 117.99-19.45 116.84-18.8ZM112.84-1.55L112.84-13.2 116.84-12.6 116.84-0.1Q116.59 0 116.09 0.13 115.59 0.25 114.99 0.25L114.99 0.25Q113.94 0.25 113.39-0.18 112.84-0.6 112.84-1.55L112.84-1.55ZM140.19 0.7L140.19 0.7Q135.49 0.7 132.91-1.15 130.34-3 130.34-6.5L130.34-6.5Q130.34-9.75 132.51-11.48 134.69-13.2 138.54-13.55L138.54-13.55 145.64-14.25 145.64-15.65Q145.64-18.15 144.14-19.3 142.64-20.45 140.09-20.45L140.09-20.45Q138.04-20.45 136.16-19.85 134.29-19.25 132.84-18.5L132.84-18.5Q132.44-18.85 132.11-19.33 131.79-19.8 131.79-20.3L131.79-20.3Q131.79-21.6 133.24-22.3L133.24-22.3Q134.59-23 136.36-23.38 138.14-23.75 140.14-23.75L140.14-23.75Q144.49-23.75 147.04-21.8 149.59-19.85 149.59-15.65L149.59-15.65 149.59-3.8Q149.59-2.7 149.16-2.13 148.74-1.55 147.89-1.05L147.89-1.05Q146.69-0.4 144.69 0.15 142.69 0.7 140.19 0.7ZM140.19-2.6L140.19-2.6Q142.29-2.6 143.66-3.03 145.04-3.45 145.64-3.85L145.64-3.85 145.64-11.1 139.44-10.45Q136.84-10.25 135.59-9.3 134.34-8.35 134.34-6.55L134.34-6.55Q134.34-4.7 135.81-3.65 137.29-2.6 140.19-2.6Z" fill="#ffffff" data-fill-palette-color="primary"></path></g></svg></g></svg></g></svg></g></svg></g><g transform="matrix(1,0,0,1,90.67434093948607,0)"><svg viewBox="0 0 42.65131812102786 42.65077823092506" height="42.65077823092506" width="42.65131812102786"><g><svg xmlns="http://www.w3.org/2000/svg" xmlns:xlink="http://www.w3.org/1999/xlink" version="1.1" x="0" y="0" viewBox="10.5 10.501 79 78.999" enable-background="new 0 0 100 100" xml:space="preserve" height="42.65077823092506" width="42.65131812102786" class="icon-icon-0" data-fill-palette-color="accent" id="icon-0"><g fill="#9d6bff" data-fill-palette-color="accent"><g fill="#9d6bff" data-fill-palette-color="accent"><g fill="#9d6bff" data-fill-palette-color="accent"><g fill="#9d6bff" data-fill-palette-color="accent"><path d="M74.5 47.58c8.271 0 15 6.95 15 15.49s-6.729 15.49-15 15.49h-5.819C67.5 84.939 63.67 89.5 58.98 89.5h-19.4c-2.95 0-5.72-1.83-7.59-5.03-1.61-2.729-2.49-6.31-2.49-10.07 0-8.46 4.431-15.089 10.08-15.089h19.4c2.96 0 5.729 1.829 7.6 5.02 1.34 2.29 2.16 5.16 2.4 8.23h5.52c4.96 0 9-4.261 9-9.49 0-5.24-4.04-9.49-9-9.49h-49c-8.27 0-15-6.95-15-15.49s6.73-15.489 15-15.489h5.63c0.91-6.98 4.92-12.101 9.891-12.101H60.42c2.95 0 5.72 1.83 7.59 5.03 1.61 2.729 2.49 6.31 2.49 10.07 0 4.229-1.11 8-2.92 10.72-1.82 2.71-4.34 4.369-7.16 4.369H41.021c-2.96 0-5.73-1.829-7.601-5.02-1.17-2-1.95-4.439-2.29-7.069H25.5c-4.96 0-9 4.26-9 9.489 0 5.23 4.04 9.49 9 9.49H74.5zM60.42 34.689c1.62 0 4.08-3.629 4.08-9.089 0-2.671-0.61-5.24-1.66-7.04-0.76-1.291-1.659-2.061-2.42-2.061-1.63 0-4.09 3.63-4.09 9.101C56.33 31.061 58.79 34.689 60.42 34.689zM58.98 83.5c1.62 0 4.08-3.63 4.08-9.101 0-2.659-0.601-5.229-1.66-7.039-0.761-1.28-1.66-2.05-2.42-2.05H47.67c1.261 2.51 2 5.64 2 9.089 0 3.451-0.739 6.581-2 9.101H58.98zM52.33 16.5h-11.31c-1.62 0-4.08 3.63-4.08 9.101 0 2.659 0.6 5.229 1.66 7.029 0.76 1.29 1.659 2.06 2.42 2.06h11.31c-1.261-2.51-2-5.649-2-9.089C50.33 22.149 51.069 19.01 52.33 16.5zM43.67 74.399c0-5.47-2.46-9.089-4.09-9.089-1.62 0-4.08 3.619-4.08 9.089 0 2.671 0.61 5.24 1.66 7.04 0.76 1.291 1.659 2.061 2.42 2.061C41.21 83.5 43.67 79.87 43.67 74.399z" fill="#ffffff" data-fill-palette-color="accent"></path><path d="M84.851 13.83c6.18 6.48 6.17 17.04-0.011 23.53-0.59 0.62-1.38 0.93-2.17 0.93-0.75 0-1.489-0.271-2.069-0.83-1.2-1.14-1.25-3.04-0.101-4.24 4.01-4.21 4.01-11.05 0.01-15.26-1.14-1.2-1.1-3.1 0.101-4.24C81.811 12.58 83.71 12.63 84.851 13.83z" fill="#ffffff" data-fill-palette-color="accent"></path><path d="M77.54 18.17c3.891 4.15 3.92 10.9 0.08 15.05-0.59 0.641-1.4 0.96-2.2 0.96-0.729 0-1.47-0.26-2.04-0.8-1.22-1.12-1.29-3.02-0.16-4.24 1.721-1.85 1.69-5-0.06-6.859-1.13-1.2-1.07-3.101 0.14-4.24C74.5 16.91 76.4 16.97 77.54 18.17z" fill="#ffffff" data-fill-palette-color="accent"></path><path d="M26.84 77.72c1.13 1.2 1.07 3.101-0.14 4.24-0.58 0.54-1.311 0.81-2.05 0.81-0.8 0-1.601-0.319-2.19-0.939-3.891-4.15-3.92-10.9-0.08-15.05 1.13-1.22 3.03-1.29 4.24-0.16 1.22 1.12 1.29 3.02 0.16 4.24C25.061 72.71 25.09 75.86 26.84 77.72z" fill="#ffffff" data-fill-palette-color="accent"></path><path d="M19.49 82.04c1.14 1.19 1.1 3.09-0.101 4.24-0.579 0.55-1.329 0.82-2.07 0.82-0.789 0-1.579-0.311-2.169-0.931-6.181-6.48-6.17-17.04 0.01-23.53 1.14-1.2 3.04-1.25 4.24-0.1 1.2 1.14 1.25 3.04 0.1 4.24C15.5 70.99 15.49 77.83 19.49 82.04z" fill="#ffffff" data-fill-palette-color="accent"></path></g></g></g></g></svg></g></svg></g><g></g></svg></g></svg></g></svg></g><defs></defs></svg><rect width="320" height="360" fill="none" stroke="none" visibility="hidden"></rect></g></svg></g></svg>