<?xml version="1.0" standalone="no"?>
<!DOCTYPE svg PUBLIC "-//W3C//DTD SVG 20010904//EN"
 "http://www.w3.org/TR/2001/REC-SVG-20010904/DTD/svg10.dtd">
<svg  version="1.0" xmlns="http://www.w3.org/2000/svg"
 width="200.000000pt" height="200.000000pt" viewBox="0 0 200.000000 200.000000"
 preserveAspectRatio="xMidYMid meet">

<g transform="translate(0.000000,200.000000) scale(0.100000,-0.100000)"
fill="#000000" stroke="none">
<path d="M745 1767 c-46 -26 -100 -108 -113 -171 l-8 -41 -95 -6 c-73 -5 -106
-12 -144 -32 -223 -114 -232 -429 -15 -551 l55 -31 560 -5 c412 -4 566 -8 581
-17 34 -20 81 -78 94 -118 16 -50 6 -120 -24 -166 -35 -53 -96 -79 -182 -79
l-70 0 -17 69 c-20 78 -61 142 -110 171 -29 18 -51 20 -270 20 -254 0 -268 -2
-314 -52 -12 -12 -34 -50 -50 -83 -25 -54 -28 -71 -28 -165 0 -99 2 -109 34
-174 26 -53 43 -74 79 -97 l46 -29 231 0 231 0 46 29 c34 22 53 44 77 92 17
34 31 70 31 81 0 16 9 18 85 18 146 0 248 58 305 175 34 70 35 188 2 260 -29
63 -83 119 -147 153 l-50 27 -555 5 c-623 6 -595 2 -646 80 -51 76 -42 169 23
241 40 45 82 59 170 59 l62 0 17 -61 c20 -70 61 -131 107 -159 29 -18 51 -20
270 -20 254 0 268 2 314 52 40 42 74 133 80 212 10 134 -36 257 -116 308 l-45
28 -230 0 c-221 0 -233 -1 -271 -23z m295 -104 c0 -5 -7 -26 -15 -48 -19 -53
-19 -189 0 -251 8 -27 15 -50 15 -51 0 -2 -53 -3 -118 -3 -105 0 -121 2 -136
19 -59 65 -61 234 -4 314 19 27 20 27 139 27 65 0 119 -3 119 -7z m185 1 c9
-4 26 -25 38 -48 31 -58 31 -193 1 -250 -39 -75 -72 -74 -111 4 -39 76 -27
226 23 281 19 21 24 22 49 13z m-402 -992 c29 -32 47 -90 47 -154 0 -78 -14
-130 -44 -164 -30 -35 -60 -25 -87 29 -67 130 5 377 84 289z m395 -7 c30 -37
45 -108 40 -178 -6 -67 -37 -140 -63 -151 -9 -3 -66 -6 -127 -6 -110 0 -110 0
-103 23 30 98 34 206 10 283 -8 27 -15 50 -15 52 0 1 54 2 119 2 115 0 120 -1
139 -25z"/>
<path d="M1610 1720 c-27 -27 -26 -33 17 -101 60 -98 56 -180 -13 -281 -29
-42 -26 -70 10 -94 34 -22 70 -4 106 53 66 104 76 230 26 336 -46 98 -102 131
-146 87z"/>
<path d="M1478 1646 c-31 -15 -35 -58 -9 -100 26 -42 27 -82 1 -121 -25 -37
-25 -67 -2 -88 30 -28 68 -21 95 16 61 81 62 194 2 265 -30 35 -55 44 -87 28z"/>
<path d="M322 760 c-29 -12 -79 -92 -99 -159 -30 -103 2 -241 71 -313 39 -41
90 -36 107 9 8 20 3 35 -27 84 -60 96 -57 185 7 273 35 49 36 60 4 91 -26 27
-29 28 -63 15z"/>
<path d="M436 650 c-61 -73 -60 -202 3 -272 65 -73 146 -6 91 77 -11 17 -20
44 -20 60 0 17 9 44 20 60 25 37 25 67 2 88 -29 26 -67 21 -96 -13z"/>
</g>
</svg>
